<svg width="20" height="33" viewBox="0 0 20 33" fill="none" xmlns="http://www.w3.org/2000/svg">
<path d="M0.4 33V0.599998H8.6C11.4267 0.599998 13.6267 0.959998 15.2 1.68C16.7733 2.37333 17.88 3.48 18.52 5C19.16 6.49333 19.48 8.44 19.48 10.84V22.6C19.48 25.0267 19.16 27.0133 18.52 28.56C17.88 30.08 16.7733 31.2 15.2 31.92C13.6533 32.64 11.48 33 8.68 33H0.4ZM7.56 28.04H8.68C9.77333 28.04 10.56 27.88 11.04 27.56C11.52 27.24 11.8133 26.76 11.92 26.12C12.0533 25.48 12.12 24.68 12.12 23.72V9.6C12.12 8.64 12.04 7.86667 11.88 7.28C11.7467 6.69333 11.44 6.26667 10.96 6C10.48 5.73333 9.70667 5.6 8.64 5.6H7.56V28.04Z" fill="black"/>
</svg>
