<svg width="10" height="10" viewBox="0 0 6 10" fill="none" xmlns="http://www.w3.org/2000/svg">
<path d="M5.21962 3.42523C5.51853 3.21328 5.74897 2.8957 5.87605 2.52054C6.00313 2.14538 6.01994 1.73307 5.92393 1.34601C5.82793 0.95895 5.62433 0.618203 5.34396 0.37534C5.06359 0.132476 4.7217 0.000716228 4.37004 0H1.61902C1.26736 0.000716228 0.925471 0.132476 0.645099 0.37534C0.364728 0.618203 0.161133 0.95895 0.0651277 1.34601C-0.0308776 1.73307 -0.014068 2.14538 0.113013 2.52054C0.240093 2.8957 0.470528 3.21328 0.769442 3.42523C0.53432 3.59044 0.340137 3.82184 0.205433 4.09736C0.0707284 4.37287 0 4.68329 0 4.99898C0 5.31467 0.0707284 5.62509 0.205433 5.9006C0.340137 6.17612 0.53432 6.40752 0.769442 6.57273C0.529312 6.7422 0.332081 6.98056 0.197316 7.26416C0.06255 7.54776 -0.00506733 7.86674 0.0011712 8.18946C0.00740972 8.51219 0.0872873 8.82744 0.23288 9.10394C0.378473 9.38045 0.584721 9.60859 0.831165 9.76575C1.07761 9.92291 1.35568 10.0036 1.63781 9.99988C1.91993 9.99613 2.19629 9.90806 2.43948 9.74439C2.68267 9.58073 2.88423 9.34717 3.02417 9.06687C3.16412 8.78658 3.23758 8.46929 3.23727 8.14649V6.31816C3.39913 6.50342 3.59352 6.64727 3.80758 6.74022C4.02163 6.83316 4.25049 6.87308 4.47904 6.85734C4.70758 6.84159 4.9306 6.77053 5.13336 6.64887C5.33612 6.5272 5.51401 6.35769 5.65527 6.15154C5.79653 5.94539 5.89795 5.7073 5.95283 5.45298C6.00771 5.19866 6.01479 4.93391 5.97361 4.67623C5.93244 4.41855 5.84394 4.1738 5.71396 3.95815C5.58399 3.7425 5.4155 3.56086 5.21962 3.42523ZM5.50281 1.85147C5.50175 2.19483 5.38206 2.52377 5.16985 2.76656C4.95765 3.00935 4.67014 3.14629 4.37004 3.14751H3.23727V0.555442H4.37004C4.67014 0.556662 4.95765 0.693599 5.16985 0.936389C5.38206 1.17918 5.50175 1.50812 5.50281 1.85147ZM0.486249 1.85147C0.487315 1.50812 0.607002 1.17918 0.819208 0.936389C1.03141 0.693599 1.31892 0.556662 1.61902 0.555442H2.75179V3.14751H1.61902C1.31892 3.14629 1.03141 3.00935 0.819208 2.76656C0.607002 2.52377 0.487315 2.19483 0.486249 1.85147ZM0.486249 4.99898C0.487315 4.65563 0.607002 4.32668 0.819208 4.08389C1.03141 3.84111 1.31892 3.70417 1.61902 3.70295H2.75179V6.29501H1.61902C1.31892 6.29379 1.03141 6.15685 0.819208 5.91407C0.607002 5.67128 0.487315 5.34233 0.486249 4.99898ZM1.61902 9.44252C1.31859 9.44252 1.03047 9.30597 0.81803 9.06292C0.605594 8.81987 0.486249 8.49021 0.486249 8.14649C0.486249 7.80276 0.605594 7.47311 0.81803 7.23005C1.03047 6.987 1.31859 6.85045 1.61902 6.85045H2.75179V8.14649C2.75073 8.48984 2.63104 8.81878 2.41883 9.06157C2.20663 9.30436 1.91912 9.4413 1.61902 9.44252ZM4.37004 6.29501C4.06961 6.29501 3.78148 6.15847 3.56905 5.91541C3.35661 5.67236 3.23727 5.34271 3.23727 4.99898C3.23727 4.65525 3.35661 4.3256 3.56905 4.08255C3.78148 3.83949 4.06961 3.70295 4.37004 3.70295C4.67047 3.70295 4.9586 3.83949 5.17103 4.08255C5.38347 4.3256 5.50281 4.65525 5.50281 4.99898C5.50281 5.34271 5.38347 5.67236 5.17103 5.91541C4.9586 6.15847 4.67047 6.29501 4.37004 6.29501Z" fill="#111111"/>
</svg>
