<svg width="12" height="12" viewBox="0 0 11 12" fill="none" xmlns="http://www.w3.org/2000/svg">
<path d="M4.17647 9.88407C1.9 10.6652 1.9 8.48916 1 8.21018M7.35294 11V9.04713C7.35294 8.48916 7.40588 8.26598 7.08824 7.9312C8.57059 7.76381 10 7.15005 10 4.58342C9.99936 3.91663 9.75253 3.27628 9.31177 2.79793C9.51848 2.21875 9.49945 1.5769 9.25882 1.01245C9.25882 1.01245 8.67647 0.845061 7.40588 1.7378C6.32971 1.44241 5.1997 1.44241 4.12353 1.7378C2.85294 0.845061 2.27059 1.01245 2.27059 1.01245C2.02996 1.5769 2.01093 2.21875 2.21765 2.79793C1.77689 3.27628 1.53006 3.91663 1.52941 4.58342C1.52941 7.15005 2.95882 7.76381 4.44118 7.9312C4.12353 8.26598 4.12353 8.60076 4.17647 9.04713V11" stroke="#111111" stroke-linecap="round" stroke-linejoin="round"/>
</svg>
