<svg width="25" height="25" viewBox="0 0 23 23" fill="currentColor" xmlns="http://www.w3.org/2000/svg">
<path d="M11.75 22.5C10.375 22.5 9.19792 22.0104 8.21875 21.0312C7.23959 20.0521 6.75 18.875 6.75 17.5H3C2.3125 17.5 1.72375 17.255 1.23375 16.765C0.743752 16.275 0.499169 15.6867 0.500002 15C0.500002 12.0833 1.45834 9.5675 3.375 7.4525C5.29167 5.3375 7.66667 4.12417 10.5 3.8125V0H13V3.8125C15.8333 4.125 18.2083 5.33875 20.125 7.45375C22.0417 9.56875 23 12.0842 23 15C23 15.6875 22.755 16.2763 22.265 16.7663C21.775 17.2563 21.1867 17.5008 20.5 17.5H16.75C16.75 18.875 16.2604 20.0521 15.2813 21.0312C14.3021 22.0104 13.125 22.5 11.75 22.5ZM3 15H20.5C20.5 12.5833 19.6458 10.5208 17.9375 8.8125C16.2292 7.10417 14.1667 6.25 11.75 6.25C9.33334 6.25 7.27084 7.10417 5.5625 8.8125C3.85417 10.5208 3 12.5833 3 15ZM11.75 20C12.4375 20 13.0263 19.755 13.5163 19.265C14.0063 18.775 14.2508 18.1867 14.25 17.5H9.25C9.25 18.1875 9.495 18.7763 9.985 19.2663C10.475 19.7563 11.0633 20.0008 11.75 20Z" fill="inherit"/>
</svg>