<svg width="10" height="10" viewBox="0 0 10 10" fill="none" xmlns="http://www.w3.org/2000/svg">
<path d="M3.6 2.6C3.6 2.71867 3.56481 2.83467 3.49888 2.93334C3.43295 3.03201 3.33925 3.10892 3.22961 3.15433C3.11997 3.19974 2.99933 3.21162 2.88295 3.18847C2.76656 3.16532 2.65965 3.10818 2.57574 3.02426C2.49182 2.94035 2.43468 2.83344 2.41153 2.71705C2.38838 2.60067 2.40026 2.48003 2.44567 2.37039C2.49108 2.26075 2.56799 2.16705 2.66666 2.10112C2.76533 2.03519 2.88133 2 3 2C3.15913 2 3.31174 2.06321 3.42426 2.17574C3.53679 2.28826 3.6 2.44087 3.6 2.6ZM10 0.8V9.2C10 9.41217 9.91571 9.61566 9.76569 9.76569C9.61566 9.91571 9.41217 10 9.2 10H0.8C0.587827 10 0.384344 9.91571 0.234315 9.76569C0.0842854 9.61566 0 9.41217 0 9.2V0.8C0 0.587827 0.0842854 0.384344 0.234315 0.234315C0.384344 0.0842854 0.587827 0 0.8 0H9.2C9.41217 0 9.61566 0.0842854 9.76569 0.234315C9.91571 0.384344 10 0.587827 10 0.8ZM9.2 9.2V0.8H0.8V9.2H9.2ZM3 3.8C2.89391 3.8 2.79217 3.84214 2.71716 3.91716C2.64214 3.99217 2.6 4.09391 2.6 4.2V7.4C2.6 7.50609 2.64214 7.60783 2.71716 7.68284C2.79217 7.75786 2.89391 7.8 3 7.8C3.10609 7.8 3.20783 7.75786 3.28284 7.68284C3.35786 7.60783 3.4 7.50609 3.4 7.4V4.2C3.4 4.09391 3.35786 3.99217 3.28284 3.91716C3.20783 3.84214 3.10609 3.8 3 3.8ZM6 3.8C5.6399 3.79998 5.28808 3.90797 4.99 4.11C4.96813 4.01402 4.91163 3.92948 4.83132 3.87255C4.75101 3.81562 4.65253 3.7903 4.55472 3.80145C4.45691 3.81259 4.36665 3.85941 4.3012 3.93294C4.23576 4.00647 4.19972 4.10156 4.2 4.2V7.4C4.2 7.50609 4.24214 7.60783 4.31716 7.68284C4.39217 7.75786 4.49391 7.8 4.6 7.8C4.70609 7.8 4.80783 7.75786 4.88284 7.68284C4.95786 7.60783 5 7.50609 5 7.4V5.6C5 5.33478 5.10536 5.08043 5.29289 4.89289C5.48043 4.70536 5.73478 4.6 6 4.6C6.26522 4.6 6.51957 4.70536 6.70711 4.89289C6.89464 5.08043 7 5.33478 7 5.6V7.4C7 7.50609 7.04214 7.60783 7.11716 7.68284C7.19217 7.75786 7.29391 7.8 7.4 7.8C7.50609 7.8 7.60783 7.75786 7.68284 7.68284C7.75786 7.60783 7.8 7.50609 7.8 7.4V5.6C7.8 5.12261 7.61036 4.66477 7.27279 4.32721C6.93523 3.98964 6.47739 3.8 6 3.8Z" fill="#111111"/>
</svg>
