<svg width="14" height="14" viewBox="0 0 10 14" fill="none" xmlns="http://www.w3.org/2000/svg">
<path d="M5 7C5.34375 7 5.63813 6.8628 5.88313 6.5884C6.12813 6.314 6.25042 5.98453 6.25 5.6C6.25 5.215 6.1275 4.8853 5.8825 4.6109C5.6375 4.3365 5.34333 4.19953 5 4.2C4.65625 4.2 4.36187 4.3372 4.11687 4.6116C3.87187 4.886 3.74958 5.21547 3.75 5.6C3.75 5.985 3.8725 6.3147 4.1175 6.5891C4.3625 6.8635 4.65667 7.00047 5 7ZM5 12.145C6.27083 10.8383 7.21354 9.65113 7.82812 8.5834C8.44271 7.51567 8.75 6.56787 8.75 5.74C8.75 4.46833 8.38792 3.4272 7.66375 2.6166C6.93958 1.806 6.05167 1.40047 5 1.4C3.94792 1.4 3.05979 1.80553 2.33562 2.6166C1.61146 3.42767 1.24958 4.4688 1.25 5.74C1.25 6.56833 1.55729 7.51637 2.17188 8.5841C2.78646 9.65183 3.72917 10.8388 5 12.145ZM5 14C3.32292 12.4017 2.07042 10.9172 1.2425 9.5466C0.414583 8.176 0.000416667 6.90713 0 5.74C0 3.99 0.502708 2.59583 1.50813 1.5575C2.51354 0.519167 3.6775 0 5 0C6.32292 0 7.48708 0.519167 8.4925 1.5575C9.49792 2.59583 10.0004 3.99 10 5.74C10 6.90667 9.58583 8.17553 8.7575 9.5466C7.92917 10.9177 6.67667 12.4021 5 14Z" fill="#111111"/>
</svg>
