<svg width="10" height="10" viewBox="0 0 10 8" fill="none" xmlns="http://www.w3.org/2000/svg">
<path d="M1 8C0.725001 8 0.489501 7.902 0.293501 7.706C0.0975008 7.51 -0.000332484 7.27467 8.48897e-07 7V1C8.48897e-07 0.725001 0.0980009 0.489501 0.294001 0.293501C0.490001 0.0975008 0.725334 -0.000332484 1 8.48897e-07H9C9.275 8.48897e-07 9.5105 0.0980007 9.7065 0.294001C9.9025 0.490001 10.0003 0.725334 10 1V7C10 7.275 9.902 7.5105 9.706 7.7065C9.51 7.9025 9.27467 8.00033 9 8H1ZM5 4.5L1 2V7H9V2L5 4.5ZM5 3.5L9 1H1L5 3.5ZM1 2V1V7V2Z" fill="#111111"/>
</svg>
