<svg width="25" height="25" viewBox="0 0 25 17" fill="none" xmlns="http://www.w3.org/2000/svg">
<path d="M1.25 3.75C0.895838 3.75 0.598754 3.63 0.358754 3.39C0.118754 3.15 -0.000829008 2.85333 4.32526e-06 2.5C4.32526e-06 2.14583 0.120004 1.84875 0.360004 1.60875C0.600004 1.36875 0.896671 1.24917 1.25 1.25H5C5.35417 1.25 5.65125 1.37 5.89125 1.61C6.13125 1.85 6.25084 2.14667 6.25 2.5C6.25 2.85417 6.13 3.15125 5.89 3.39125C5.65 3.63125 5.35334 3.75083 5 3.75H1.25ZM1.25 10C0.895838 10 0.598754 9.88 0.358754 9.64C0.118754 9.4 -0.000829008 9.10333 4.32526e-06 8.75C4.32526e-06 8.39583 0.120004 8.09875 0.360004 7.85875C0.600004 7.61875 0.896671 7.49917 1.25 7.5H5C5.35417 7.5 5.65125 7.62 5.89125 7.86C6.13125 8.1 6.25084 8.39667 6.25 8.75C6.25 9.10417 6.13 9.40125 5.89 9.64125C5.65 9.88125 5.35334 10.0008 5 10H1.25ZM22.375 15.375L18.4375 11.4375C17.9375 11.7917 17.3904 12.0575 16.7963 12.235C16.2021 12.4125 15.6033 12.5008 15 12.5C13.2708 12.5 11.7967 11.8904 10.5775 10.6712C9.35834 9.45208 8.74917 7.97833 8.75 6.25C8.75 4.52083 9.35959 3.04667 10.5788 1.8275C11.7979 0.608334 13.2717 -0.000832479 15 8.53825e-07C16.7292 8.53825e-07 18.2033 0.609584 19.4225 1.82875C20.6417 3.04792 21.2508 4.52167 21.25 6.25C21.25 6.85417 21.1613 7.45333 20.9838 8.0475C20.8063 8.64167 20.5408 9.18833 20.1875 9.6875L24.125 13.625C24.3542 13.8542 24.4688 14.1458 24.4688 14.5C24.4688 14.8542 24.3542 15.1458 24.125 15.375C23.8958 15.6042 23.6042 15.7188 23.25 15.7188C22.8958 15.7188 22.6042 15.6042 22.375 15.375ZM15 10C16.0417 10 16.9271 9.63542 17.6563 8.90625C18.3854 8.17708 18.75 7.29167 18.75 6.25C18.75 5.20833 18.3854 4.32292 17.6563 3.59375C16.9271 2.86458 16.0417 2.5 15 2.5C13.9583 2.5 13.0729 2.86458 12.3438 3.59375C11.6146 4.32292 11.25 5.20833 11.25 6.25C11.25 7.29167 11.6146 8.17708 12.3438 8.90625C13.0729 9.63542 13.9583 10 15 10ZM1.25 16.25C0.895838 16.25 0.598754 16.13 0.358754 15.89C0.118754 15.65 -0.000829008 15.3533 4.32526e-06 15C4.32526e-06 14.6458 0.120004 14.3488 0.360004 14.1088C0.600004 13.8688 0.896671 13.7492 1.25 13.75H11.25C11.6042 13.75 11.9013 13.87 12.1413 14.11C12.3813 14.35 12.5008 14.6467 12.5 15C12.5 15.3542 12.38 15.6512 12.14 15.8912C11.9 16.1312 11.6033 16.2508 11.25 16.25H1.25Z" fill="black"/>
</svg>
