<svg width="10" height="10" viewBox="0 0 10 10" fill="none" xmlns="http://www.w3.org/2000/svg">
<path d="M9.97372 1.50653C9.94571 1.43071 9.89861 1.36602 9.83834 1.32061C9.77807 1.2752 9.70734 1.25111 9.63506 1.25137H8.24381C8.07685 0.919918 7.84509 0.636645 7.56647 0.423487C7.28785 0.210329 6.96985 0.0730058 6.6371 0.0221521C6.30434 -0.0287015 5.96577 0.00827912 5.6476 0.13023C5.32942 0.252182 5.04019 0.455831 4.80229 0.725406C4.594 0.956499 4.4284 1.23263 4.31523 1.53758C4.20206 1.84253 4.1436 2.17015 4.14327 2.50117V2.81883C2.28064 2.26683 0.756673 0.558765 0.742943 0.537935C0.695072 0.484344 0.635169 0.446768 0.569788 0.429317C0.504408 0.411866 0.436068 0.415213 0.372248 0.438992C0.308629 0.46203 0.25166 0.50419 0.207356 0.561019C0.163051 0.617849 0.133057 0.687238 0.120541 0.761858C-0.277614 3.27188 0.385977 4.95391 1.01296 5.92251C1.32743 6.4123 1.7091 6.84132 2.14335 7.19315C1.44315 8.09405 0.363095 8.56272 0.353942 8.56793C0.302293 8.58973 0.255633 8.6245 0.217438 8.66967C0.179242 8.71484 0.150495 8.76923 0.13334 8.82879C0.116184 8.88836 0.111062 8.95156 0.118355 9.01369C0.125647 9.07582 0.145167 9.13527 0.175459 9.18763C0.212071 9.25012 0.349365 9.45321 0.683449 9.64589C1.09991 9.88023 1.64909 10 2.31268 10C5.5391 10 8.23923 7.17232 8.51382 3.53226L9.89592 1.9648C9.94559 1.90456 9.97925 1.82956 9.99302 1.74846C10.0068 1.66736 10.0001 1.58348 9.97372 1.50653ZM7.90057 3.05317C7.83679 3.12515 7.79921 3.22184 7.79531 3.32396C7.60768 6.59949 5.20044 9.1668 2.31268 9.1668C1.82757 9.1668 1.48891 9.09389 1.25093 9.00536C1.77723 8.6825 2.50947 8.12008 2.98542 7.31292C3.01305 7.26407 3.03139 7.20918 3.03928 7.15178C3.04716 7.09439 3.0444 7.03575 3.03119 6.97964C3.01787 6.92295 2.9943 6.87006 2.96199 6.82433C2.92968 6.7786 2.88934 6.74104 2.84355 6.71405C2.83897 6.70885 2.16165 6.30787 1.58044 5.39655C0.921426 4.36546 0.642261 3.11045 0.752096 1.66276C1.47518 2.33974 2.85728 3.44373 4.4499 3.74577C4.50249 3.75538 4.55628 3.75198 4.60762 3.73581C4.65895 3.71963 4.70662 3.69106 4.74737 3.65203C4.78721 3.61236 4.81923 3.56355 4.84131 3.5088C4.8634 3.45406 4.87505 3.39461 4.87551 3.33437V2.50117C4.87619 2.11894 4.99234 1.74859 5.20447 1.45221C5.4166 1.15584 5.71182 0.951456 6.04065 0.873327C6.36947 0.795198 6.7119 0.848074 7.01054 1.02309C7.30917 1.19811 7.54585 1.48462 7.6809 1.83461C7.71009 1.90905 7.75761 1.97228 7.81771 2.01664C7.87781 2.061 7.94792 2.0846 8.01956 2.08457H8.7518L7.90057 3.05317Z" fill="#111111"/>
</svg>
